<svg width="32" height="32" fill="none" xmlns="http://www.w3.org/2000/svg"><path d="M30.222 0H1.778C.795 0 0 .796 0 1.778v28.444C0 31.204.795 32 1.778 32h28.444c.983 0 1.778-.796 1.778-1.778V1.778C32 .796 31.205 0 30.222 0ZM9.492 27.266h-4.75V11.995h4.75v15.27ZM7.116 9.909a2.752 2.752 0 1 1 0-5.503 2.752 2.752 0 0 1 0 5.503Zm20.152 17.357h-4.745V19.84c0-1.77-.032-4.048-2.468-4.048-2.471 0-2.846 1.93-2.846 3.924v7.552h-4.741V11.996h4.55v2.088h.066c.632-1.2 2.182-2.466 4.488-2.466 4.807 0 5.694 3.16 5.694 7.274v8.374h.002Z" /></svg>