<svg width="32" height="32" fill="none" xmlns="http://www.w3.org/2000/svg"><path d="M28.712 9.646c.022.292.022.583.022.873 0 8.897-6.6 19.148-18.661 19.148A18.193 18.193 0 0 1 0 26.644c.528.062 1.036.084 1.584.084a12.93 12.93 0 0 0 8.144-2.875c-2.884-.062-5.3-2-6.134-4.666.405.062.812.103 1.239.103.588 0 1.179-.083 1.728-.229-3.008-.624-5.26-3.332-5.26-6.604v-.083a6.49 6.49 0 0 0 2.964.854A6.766 6.766 0 0 1 1.34 7.624c0-1.25.324-2.395.892-3.394 3.23 4.08 8.083 6.749 13.525 7.041a7.834 7.834 0 0 1-.162-1.542C15.595 6.021 18.518 3 22.154 3c1.888 0 3.593.812 4.792 2.125A12.76 12.76 0 0 0 31.108 3.5a6.688 6.688 0 0 1-2.884 3.708c1.32-.147 2.6-.52 3.776-1.042a14.281 14.281 0 0 1-3.288 3.48Z" /></svg>